<?xml version="1.0" encoding="UTF-8"?>
<!DOCTYPE svg PUBLIC "-//W3C//DTD SVG 1.1//EN" "http://www.w3.org/Graphics/SVG/1.1/DTD/svg11.dtd">
<svg xmlns="http://www.w3.org/2000/svg" version="1.1" width="145px" height="146px" style="shape-rendering:geometricPrecision; text-rendering:geometricPrecision; image-rendering:optimizeQuality; fill-rule:evenodd; clip-rule:evenodd" xmlns:xlink="http://www.w3.org/1999/xlink">
<g><path style="opacity:0.173" fill="#ab9e7f" d="M 76.5,12.5 C 72.8333,13.8333 69.1667,13.8333 65.5,12.5C 69.1667,11.1667 72.8333,11.1667 76.5,12.5 Z"/></g>
<g><path style="opacity:0.973" fill="#9b7c63" d="M 65.5,12.5 C 69.1667,13.8333 72.8333,13.8333 76.5,12.5C 78.4109,12.5743 79.5776,13.5743 80,15.5C 80.6103,18.8273 81.1103,22.1606 81.5,25.5C 86.8554,26.174 91.8554,27.8407 96.5,30.5C 99.2796,28.8967 101.946,27.0634 104.5,25C 105.928,24.4209 107.262,24.5876 108.5,25.5C 108.5,26.5 108.5,27.5 108.5,28.5C 106.143,28.3367 103.81,28.5034 101.5,29C 99.8587,31.163 97.8587,32.663 95.5,33.5C 94.7611,33.631 94.0944,33.4643 93.5,33C 94.8333,32.3333 94.8333,31.6667 93.5,31C 90.1484,30.1621 86.8151,29.3288 83.5,28.5C 81.4078,28.4386 79.9078,27.4386 79,25.5C 78.5017,22.1832 78.335,18.8499 78.5,15.5C 76.5,15.5 74.5,15.5 72.5,15.5C 66.1272,15.4035 59.7938,15.4035 53.5,15.5C 57.226,13.8699 61.226,12.8699 65.5,12.5 Z"/></g>
<g><path style="opacity:1" fill="#935b36" d="M 72.5,15.5 C 73.1667,17.8333 73.8333,20.1667 74.5,22.5C 72.5165,22.6168 70.8498,21.9501 69.5,20.5C 68.2679,21.1445 66.9346,21.3112 65.5,21C 62.5816,25.179 60.5816,29.679 59.5,34.5C 58.5491,31.8983 57.2158,29.5649 55.5,27.5C 55.44,26.9569 55.1067,26.6236 54.5,26.5C 52.5504,27.3721 50.5504,28.0388 48.5,28.5C 47.8333,28.5 47.1667,28.5 46.5,28.5C 46.4142,27.5041 46.7476,26.6708 47.5,26C 52.4823,26.1487 54.1489,23.982 52.5,19.5C 50.5914,20.3482 48.5914,20.6816 46.5,20.5C 48.2726,19.1077 50.2726,17.941 52.5,17C 52.2716,16.6012 51.9382,16.4346 51.5,16.5C 51.8417,15.6618 52.5084,15.3284 53.5,15.5C 59.7938,15.4035 66.1272,15.4035 72.5,15.5 Z"/></g>
<g><path style="opacity:1" fill="#9a6541" d="M 72.5,15.5 C 74.5,15.5 76.5,15.5 78.5,15.5C 78.335,18.8499 78.5017,22.1832 79,25.5C 79.9078,27.4386 81.4078,28.4386 83.5,28.5C 82.3915,29.29 81.0581,29.79 79.5,30C 81.3921,30.9734 83.3921,31.6401 85.5,32C 82.5338,33.0473 79.5338,33.8806 76.5,34.5C 75.8333,34.5 75.1667,34.5 74.5,34.5C 74.5,30.5 74.5,26.5 74.5,22.5C 73.8333,20.1667 73.1667,17.8333 72.5,15.5 Z"/></g>
<g><path style="opacity:0.925" fill="#866952" d="M 51.5,16.5 C 51.9382,16.4346 52.2716,16.6012 52.5,17C 50.2726,17.941 48.2726,19.1077 46.5,20.5C 35.638,24.8635 27.4713,32.1969 22,42.5C 21.5357,41.9056 21.369,41.2389 21.5,40.5C 28.2529,28.411 38.2529,20.411 51.5,16.5 Z"/></g>
<g><path style="opacity:1" fill="#8f6445" d="M 74.5,22.5 C 74.5,26.5 74.5,30.5 74.5,34.5C 73.5041,34.5858 72.6708,34.2524 72,33.5C 71.5017,30.1832 71.335,26.8499 71.5,23.5C 70.209,23.2627 69.209,23.596 68.5,24.5C 63.8359,31.1603 60.8359,38.4937 59.5,46.5C 60.791,46.2627 61.791,46.596 62.5,47.5C 61.1667,47.5 59.8333,47.5 58.5,47.5C 58.6602,45.8008 58.4935,44.1341 58,42.5C 57.7679,43.7375 57.2679,44.7375 56.5,45.5C 57.2102,41.7487 58.2102,38.082 59.5,34.5C 60.5816,29.679 62.5816,25.179 65.5,21C 66.9346,21.3112 68.2679,21.1445 69.5,20.5C 70.8498,21.9501 72.5165,22.6168 74.5,22.5 Z"/></g>
<g><path style="opacity:1" fill="#844e27" d="M 46.5,28.5 C 45.1696,29.8321 43.5029,30.6655 41.5,31C 37.7462,36.1069 33.9128,41.2736 30,46.5C 29.3083,47.4368 29.475,48.1034 30.5,48.5C 35.5,48.5 40.5,48.5 45.5,48.5C 45.5,49.5 45.5,50.5 45.5,51.5C 43.5,51.5 41.5,51.5 39.5,51.5C 34.8694,51.2766 30.5361,50.11 26.5,48C 28.1066,46.951 28.7733,45.451 28.5,43.5C 26.857,43.4802 25.5237,44.1468 24.5,45.5C 23.8333,45.1667 23.1667,44.8333 22.5,44.5C 21.8589,45.9935 20.8589,46.9935 19.5,47.5C 18.8333,47.5 18.1667,47.5 17.5,47.5C 18.5957,44.9684 19.9291,42.6351 21.5,40.5C 21.369,41.2389 21.5357,41.9056 22,42.5C 27.4713,32.1969 35.638,24.8635 46.5,20.5C 48.5914,20.6816 50.5914,20.3482 52.5,19.5C 54.1489,23.982 52.4823,26.1487 47.5,26C 46.7476,26.6708 46.4142,27.5041 46.5,28.5 Z"/></g>
<g><path style="opacity:0.996" fill="#8d6d51" d="M 46.5,28.5 C 47.1667,28.5 47.8333,28.5 48.5,28.5C 48.5,29.1667 48.8333,29.5 49.5,29.5C 44.8986,32.924 40.3986,36.5907 36,40.5C 34.4412,42.2166 33.6079,44.2166 33.5,46.5C 32.2905,46.9321 31.2905,47.5987 30.5,48.5C 29.475,48.1034 29.3083,47.4368 30,46.5C 33.9128,41.2736 37.7462,36.1069 41.5,31C 43.5029,30.6655 45.1696,29.8321 46.5,28.5 Z"/></g>
<g><path style="opacity:1" fill="#a36c4b" d="M 83.5,28.5 C 86.8151,29.3288 90.1484,30.1621 93.5,31C 94.8333,31.6667 94.8333,32.3333 93.5,33C 94.0944,33.4643 94.7611,33.631 95.5,33.5C 94.0474,34.8249 94.3808,35.6582 96.5,36C 96.201,37.3204 96.0343,38.8204 96,40.5C 92.3208,39.4102 88.8208,37.9102 85.5,36C 82.854,35.5026 80.1873,35.3359 77.5,35.5C 76.8333,35.5 76.5,35.1667 76.5,34.5C 79.5338,33.8806 82.5338,33.0473 85.5,32C 83.3921,31.6401 81.3921,30.9734 79.5,30C 81.0581,29.79 82.3915,29.29 83.5,28.5 Z"/></g>
<g><path style="opacity:0.529" fill="#927d69" d="M 55.5,27.5 C 51.5234,34.1011 48.5234,41.1011 46.5,48.5C 42.5,47.8333 38.5,47.1667 34.5,46.5C 38.226,46.8226 41.8927,46.4892 45.5,45.5C 47.2232,40.3873 49.2232,35.3873 51.5,30.5C 51.0431,29.7025 50.3764,29.3691 49.5,29.5C 48.8333,29.5 48.5,29.1667 48.5,28.5C 50.5504,28.0388 52.5504,27.3721 54.5,26.5C 55.1067,26.6236 55.44,26.9569 55.5,27.5 Z"/></g>
<g><path style="opacity:0.798" fill="#ad9c83" d="M 68.5,24.5 C 69.209,23.596 70.209,23.2627 71.5,23.5C 71.335,26.8499 71.5017,30.1832 72,33.5C 72.6708,34.2524 73.5041,34.5858 74.5,34.5C 75.1667,34.5 75.8333,34.5 76.5,34.5C 76.5,35.1667 76.8333,35.5 77.5,35.5C 77.5,35.8333 77.5,36.1667 77.5,36.5C 75.2075,36.7564 73.0408,36.4231 71,35.5C 69.9859,31.7595 69.1526,28.0928 68.5,24.5 Z"/></g>
<g><path style="opacity:0.995" fill="#a88d73" d="M 114.5,31.5 C 117.144,33.516 117.977,36.1827 117,39.5C 114.982,41.3501 113.149,43.3501 111.5,45.5C 114.491,51.1419 117.157,56.8086 119.5,62.5C 118.508,62.3284 117.842,62.6618 117.5,63.5C 116.167,60.5 114.833,57.5 113.5,54.5C 112.034,51.0642 110.7,47.5642 109.5,44C 109.755,42.6739 110.422,41.6739 111.5,41C 111.167,40.6667 110.833,40.3333 110.5,40C 111.563,38.8118 112.897,38.3118 114.5,38.5C 114.5,36.1667 114.5,33.8333 114.5,31.5 Z"/></g>
<g><path style="opacity:1" fill="#854c25" d="M 39.5,51.5 C 40.9326,53.5184 40.5992,55.1851 38.5,56.5C 34.7884,57.4184 31.1218,57.4184 27.5,56.5C 27.5,55.5 27.5,54.5 27.5,53.5C 25.9397,53.4809 24.4397,53.1476 23,52.5C 21.9412,52.6301 21.1079,53.1301 20.5,54C 24.1685,55.9249 24.1685,57.5915 20.5,59C 20.2014,60.073 20.2014,61.2397 20.5,62.5C 18.9525,73.5136 18.6192,84.1802 19.5,94.5C 15.8114,87.4071 14.1448,79.7404 14.5,71.5C 14.2398,63.0497 15.9065,55.0497 19.5,47.5C 20.8589,46.9935 21.8589,45.9935 22.5,44.5C 23.1667,44.8333 23.8333,45.1667 24.5,45.5C 25.5237,44.1468 26.857,43.4802 28.5,43.5C 28.7733,45.451 28.1066,46.951 26.5,48C 30.5361,50.11 34.8694,51.2766 39.5,51.5 Z"/></g>
<g><path style="opacity:1" fill="#8f5833" d="M 55.5,27.5 C 57.2158,29.5649 58.5491,31.8983 59.5,34.5C 58.2102,38.082 57.2102,41.7487 56.5,45.5C 56.2852,47.1788 56.9519,48.1788 58.5,48.5C 58.3893,49.1174 58.056,49.6174 57.5,50C 63.1958,50.1701 68.8624,50.6701 74.5,51.5C 74.968,53.1338 75.968,54.3005 77.5,55C 74.8517,55.0988 72.3517,55.2654 70,55.5C 69.0497,54.9777 68.2164,54.311 67.5,53.5C 66.3578,54.8262 65.0245,55.8262 63.5,56.5C 58.2746,56.6664 53.9413,55.9998 50.5,54.5C 49.2089,53.4583 49.2089,52.2917 50.5,51C 48.8925,51.0187 47.2259,51.1854 45.5,51.5C 45.5,50.5 45.5,49.5 45.5,48.5C 45.8333,48.5 46.1667,48.5 46.5,48.5C 48.5234,41.1011 51.5234,34.1011 55.5,27.5 Z"/></g>
<g><path style="opacity:0.18" fill="#e7cfad" d="M 33.5,46.5 C 33.8333,46.5 34.1667,46.5 34.5,46.5C 38.5,47.1667 42.5,47.8333 46.5,48.5C 46.1667,48.5 45.8333,48.5 45.5,48.5C 40.5,48.5 35.5,48.5 30.5,48.5C 31.2905,47.5987 32.2905,46.9321 33.5,46.5 Z"/></g>
<g><path style="opacity:0.188" fill="#d8ca9f" d="M 62.5,47.5 C 67.3006,47.3112 71.9673,46.6445 76.5,45.5C 70.8733,47.9315 64.8733,48.9315 58.5,48.5C 56.9519,48.1788 56.2852,47.1788 56.5,45.5C 57.2679,44.7375 57.7679,43.7375 58,42.5C 58.4935,44.1341 58.6602,45.8008 58.5,47.5C 59.8333,47.5 61.1667,47.5 62.5,47.5 Z"/></g>
<g><path style="opacity:1" fill="#ab7859" d="M 108.5,25.5 C 110.833,27.1667 112.833,29.1667 114.5,31.5C 114.5,33.8333 114.5,36.1667 114.5,38.5C 112.897,38.3118 111.563,38.8118 110.5,40C 110.833,40.3333 111.167,40.6667 111.5,41C 110.422,41.6739 109.755,42.6739 109.5,44C 110.7,47.5642 112.034,51.0642 113.5,54.5C 114.763,64.974 114.763,75.474 113.5,86C 110.972,88.6228 109.972,91.7895 110.5,95.5C 111.639,98.0037 112.306,100.67 112.5,103.5C 110.685,102.37 108.685,101.704 106.5,101.5C 106.774,97.5119 105.107,94.8452 101.5,93.5C 101.629,91.7839 101.962,90.1172 102.5,88.5C 102.66,86.847 103.326,85.5137 104.5,84.5C 104.684,86.9248 105.351,86.9248 106.5,84.5C 111.675,62.6921 104.342,46.8588 84.5,37C 82.6131,36.2204 80.9464,36.3871 79.5,37.5C 78.8333,37.1667 78.1667,36.8333 77.5,36.5C 77.5,36.1667 77.5,35.8333 77.5,35.5C 80.1873,35.3359 82.854,35.5026 85.5,36C 88.8208,37.9102 92.3208,39.4102 96,40.5C 96.0343,38.8204 96.201,37.3204 96.5,36C 94.3808,35.6582 94.0474,34.8249 95.5,33.5C 97.8587,32.663 99.8587,31.163 101.5,29C 103.81,28.5034 106.143,28.3367 108.5,28.5C 108.5,27.5 108.5,26.5 108.5,25.5 Z"/></g>
<g><path style="opacity:1" fill="#8c542e" d="M 50.5,54.5 C 51.3117,65.7575 51.8117,77.0909 52,88.5C 53.0495,87.4829 54.2161,87.3162 55.5,88C 56.0805,90.1465 55.4138,92.1465 53.5,94C 53.6387,95.301 54.3054,96.1344 55.5,96.5C 55.8957,99.0444 55.229,101.211 53.5,103C 54.6536,105.573 56.3202,107.739 58.5,109.5C 57.7579,110.287 56.9246,110.953 56,111.5C 52.5005,106.788 49.6672,101.788 47.5,96.5C 47.1667,96.5 46.8333,96.5 46.5,96.5C 46.3893,95.8826 46.056,95.3826 45.5,95C 40.1771,94.5006 34.8437,94.334 29.5,94.5C 29.5,94.1667 29.5,93.8333 29.5,93.5C 34.8437,93.666 40.1771,93.4994 45.5,93C 42.5434,90.7619 42.2101,87.9286 44.5,84.5C 46.1852,83.8163 47.1852,82.483 47.5,80.5C 46.2681,77.6996 45.6015,74.6996 45.5,71.5C 45.2975,67.5956 45.9642,63.9289 47.5,60.5C 45.7717,56.1333 42.7717,54.8 38.5,56.5C 40.5992,55.1851 40.9326,53.5184 39.5,51.5C 41.5,51.5 43.5,51.5 45.5,51.5C 47.2259,51.1854 48.8925,51.0187 50.5,51C 49.2089,52.2917 49.2089,53.4583 50.5,54.5 Z"/></g>
<g><path style="opacity:0.369" fill="#a28d75" d="M 79.5,37.5 C 80.9464,36.3871 82.6131,36.2204 84.5,37C 104.342,46.8588 111.675,62.6921 106.5,84.5C 105.351,86.9248 104.684,86.9248 104.5,84.5C 110.575,60.9772 102.242,45.3105 79.5,37.5 Z"/></g>
<g><path style="opacity:1" fill="#9c6845" d="M 76.5,45.5 C 77.791,45.2627 78.791,45.596 79.5,46.5C 79.0618,46.4346 78.7284,46.6012 78.5,47C 80.5581,48.9334 82.7247,50.7667 85,52.5C 85.2896,54.0441 85.9563,55.3774 87,56.5C 86.8475,58.5185 86.3475,60.5185 85.5,62.5C 82.1633,62.3227 79.1633,61.3227 76.5,59.5C 69.0182,58.508 61.3516,58.1746 53.5,58.5C 56.8333,57.8333 60.1667,57.1667 63.5,56.5C 65.0245,55.8262 66.3578,54.8262 67.5,53.5C 68.2164,54.311 69.0497,54.9777 70,55.5C 72.3517,55.2654 74.8517,55.0988 77.5,55C 75.968,54.3005 74.968,53.1338 74.5,51.5C 68.8624,50.6701 63.1958,50.1701 57.5,50C 58.056,49.6174 58.3893,49.1174 58.5,48.5C 64.8733,48.9315 70.8733,47.9315 76.5,45.5 Z"/></g>
<g><path style="opacity:0.804" fill="#bba383" d="M 53.5,58.5 C 61.3516,58.1746 69.0182,58.508 76.5,59.5C 76.5,59.8333 76.5,60.1667 76.5,60.5C 69.557,59.5733 62.557,59.24 55.5,59.5C 55.8064,62.3854 55.4731,65.0521 54.5,67.5C 53.6805,70.3054 53.1805,73.3054 53,76.5C 52.6997,70.4964 52.8663,64.4964 53.5,58.5 Z"/></g>
<g><path style="opacity:0.999" fill="#b07f62" d="M 113.5,54.5 C 114.833,57.5 116.167,60.5 117.5,63.5C 119.5,63.5 121.5,63.5 123.5,63.5C 123.507,66.0379 123.841,68.5379 124.5,71C 124,73.5 123.5,76 123,78.5C 121.175,79.1029 119.341,79.7696 117.5,80.5C 117.624,81.1067 117.957,81.44 118.5,81.5C 117.626,85.5782 115.959,89.2449 113.5,92.5C 113.631,91.6236 113.298,90.9569 112.5,90.5C 111.83,92.2914 111.163,93.9581 110.5,95.5C 109.972,91.7895 110.972,88.6228 113.5,86C 114.763,75.474 114.763,64.974 113.5,54.5 Z"/></g>
<g><path style="opacity:1" fill="#9f6e4e" d="M 79.5,46.5 C 86.8794,47.5479 91.8794,51.5479 94.5,58.5C 93.8761,58.9169 93.5427,59.5836 93.5,60.5C 95.9705,64.1156 96.9705,68.1156 96.5,72.5C 95.2598,77.3003 93.5931,81.967 91.5,86.5C 87.0699,86.8592 84.7366,89.1926 84.5,93.5C 81.5739,94.4608 78.5739,95.1274 75.5,95.5C 77.2908,94.2129 78.9575,92.7129 80.5,91C 81.5733,89.5838 81.5733,88.2504 80.5,87C 81.9494,85.883 83.6161,85.2163 85.5,85C 84.6634,83.9887 84.33,82.8221 84.5,81.5C 80.4078,81.7261 77.9078,83.3927 77,86.5C 76.5357,85.9056 76.369,85.2389 76.5,84.5C 76.5,83.8333 76.1667,83.5 75.5,83.5C 85.7056,76.2079 86.039,68.5413 76.5,60.5C 76.5,60.1667 76.5,59.8333 76.5,59.5C 79.1633,61.3227 82.1633,62.3227 85.5,62.5C 86.3475,60.5185 86.8475,58.5185 87,56.5C 85.9563,55.3774 85.2896,54.0441 85,52.5C 82.7247,50.7667 80.5581,48.9334 78.5,47C 78.7284,46.6012 79.0618,46.4346 79.5,46.5 Z"/></g>
<g><path style="opacity:0.976" fill="#aa977a" d="M 94.5,58.5 C 98.4255,64.2984 99.4255,70.6317 97.5,77.5C 96.5489,76.0813 96.2155,74.4147 96.5,72.5C 96.9705,68.1156 95.9705,64.1156 93.5,60.5C 93.5427,59.5836 93.8761,58.9169 94.5,58.5 Z"/></g>
<g><path style="opacity:1" fill="#84502a" d="M 38.5,56.5 C 42.7717,54.8 45.7717,56.1333 47.5,60.5C 45.9642,63.9289 45.2975,67.5956 45.5,71.5C 45.6015,74.6996 46.2681,77.6996 47.5,80.5C 47.1852,82.483 46.1852,83.8163 44.5,84.5C 42.2101,87.9286 42.5434,90.7619 45.5,93C 40.1771,93.4994 34.8437,93.666 29.5,93.5C 30.4919,91.9735 31.9919,91.3068 34,91.5C 38.3338,93.809 40.1672,92.4756 39.5,87.5C 36.1501,87.335 32.8168,87.5017 29.5,88C 29,88.5 28.5,89 28,89.5C 25.4112,87.7888 22.9112,85.9555 20.5,84C 20.6036,76.9841 20.6036,69.8174 20.5,62.5C 20.2014,61.2397 20.2014,60.073 20.5,59C 24.1685,57.5915 24.1685,55.9249 20.5,54C 21.1079,53.1301 21.9412,52.6301 23,52.5C 24.4397,53.1476 25.9397,53.4809 27.5,53.5C 27.5,54.5 27.5,55.5 27.5,56.5C 31.1218,57.4184 34.7884,57.4184 38.5,56.5 Z M 42.5,82.5 C 36.9066,82.8066 31.4066,82.4732 26,81.5C 25.5004,74.8417 25.3337,68.175 25.5,61.5C 30.8701,59.6213 36.5368,58.9546 42.5,59.5C 42.5,67.1667 42.5,74.8333 42.5,82.5 Z"/></g>
<g><path style="opacity:0.024" fill="#bda788" d="M 44.5,84.5 C 38.1667,84.5 31.8333,84.5 25.5,84.5C 31.1667,83.8333 36.8333,83.1667 42.5,82.5C 42.5,74.8333 42.5,67.1667 42.5,59.5C 36.5368,58.9546 30.8701,59.6213 25.5,61.5C 25.1667,61.5 24.8333,61.5 24.5,61.5C 24.5,60.5 24.5,59.5 24.5,58.5C 31.1667,58.5 37.8333,58.5 44.5,58.5C 44.5,67.1667 44.5,75.8333 44.5,84.5 Z"/></g>
<g><path style="opacity:0.008" fill="#7e7659" d="M 24.5,61.5 C 24.8333,61.5 25.1667,61.5 25.5,61.5C 25.3337,68.175 25.5004,74.8417 26,81.5C 31.4066,82.4732 36.9066,82.8066 42.5,82.5C 36.8333,83.1667 31.1667,83.8333 25.5,84.5C 24.7321,83.7375 24.2321,82.7375 24,81.5C 23.1794,74.6536 23.346,67.987 24.5,61.5 Z"/></g>
<g><path style="opacity:1" fill="#b69170" d="M 117.5,63.5 C 117.842,62.6618 118.508,62.3284 119.5,62.5C 127.742,60.1212 131.409,63.1212 130.5,71.5C 130.986,79.9482 126.986,83.2815 118.5,81.5C 117.957,81.44 117.624,81.1067 117.5,80.5C 119.341,79.7696 121.175,79.1029 123,78.5C 123.5,76 124,73.5 124.5,71C 123.841,68.5379 123.507,66.0379 123.5,63.5C 121.5,63.5 119.5,63.5 117.5,63.5 Z"/></g>
<g><path style="opacity:1" fill="#864c22" d="M 20.5,62.5 C 20.6036,69.8174 20.6036,76.9841 20.5,84C 22.9112,85.9555 25.4112,87.7888 28,89.5C 28.5,89 29,88.5 29.5,88C 32.8168,87.5017 36.1501,87.335 39.5,87.5C 40.1672,92.4756 38.3338,93.809 34,91.5C 31.9919,91.3068 30.4919,91.9735 29.5,93.5C 27.9557,93.7031 26.6223,94.3698 25.5,95.5C 24.3348,94.5089 23.1681,93.5089 22,92.5C 21.6454,93.5091 20.8121,94.1757 19.5,94.5C 18.6192,84.1802 18.9525,73.5136 20.5,62.5 Z"/></g>
<g><path style="opacity:0.969" fill="#9c795e" d="M 96.5,72.5 C 96.2155,74.4147 96.5489,76.0813 97.5,77.5C 94.7975,87.5359 88.4642,93.8692 78.5,96.5C 76.139,96.6741 73.8056,97.0074 71.5,97.5C 70.2438,97.5386 69.2438,97.0386 68.5,96C 64.9687,95.7268 61.6353,95.5601 58.5,95.5C 57.7321,96.2625 57.2321,97.2625 57,98.5C 56.51,97.2068 56.3433,95.8734 56.5,94.5C 62.8627,94.407 69.1961,94.7403 75.5,95.5C 78.5739,95.1274 81.5739,94.4608 84.5,93.5C 84.7366,89.1926 87.0699,86.8592 91.5,86.5C 93.5931,81.967 95.2598,77.3003 96.5,72.5 Z"/></g>
<g><path style="opacity:0.559" fill="#977f68" d="M 54.5,77.5 C 55.4614,79.2646 55.7947,81.2646 55.5,83.5C 62.1667,83.5 68.8333,83.5 75.5,83.5C 76.1667,83.5 76.5,83.8333 76.5,84.5C 69.8772,85.3796 63.2105,85.713 56.5,85.5C 55.5,85.5 54.5,85.5 53.5,85.5C 53.1936,82.6146 53.5269,79.9479 54.5,77.5 Z"/></g>
<g><path style="opacity:1" fill="#8f5a36" d="M 50.5,54.5 C 53.9413,55.9998 58.2746,56.6664 63.5,56.5C 60.1667,57.1667 56.8333,57.8333 53.5,58.5C 52.8663,64.4964 52.6997,70.4964 53,76.5C 53.1805,73.3054 53.6805,70.3054 54.5,67.5C 54.5,70.8333 54.5,74.1667 54.5,77.5C 53.5269,79.9479 53.1936,82.6146 53.5,85.5C 54.5,85.5 55.5,85.5 56.5,85.5C 59.6414,86.3213 62.9748,86.8213 66.5,87C 68.032,87.6995 69.032,88.8662 69.5,90.5C 65.0931,92.0421 60.7598,93.3754 56.5,94.5C 55.6618,94.8417 55.3284,95.5084 55.5,96.5C 54.3054,96.1344 53.6387,95.301 53.5,94C 55.4138,92.1465 56.0805,90.1465 55.5,88C 54.2161,87.3162 53.0495,87.4829 52,88.5C 51.8117,77.0909 51.3117,65.7575 50.5,54.5 Z"/></g>
<g><path style="opacity:1" fill="#986441" d="M 75.5,95.5 C 69.1961,94.7403 62.8627,94.407 56.5,94.5C 60.7598,93.3754 65.0931,92.0421 69.5,90.5C 69.032,88.8662 68.032,87.6995 66.5,87C 62.9748,86.8213 59.6414,86.3213 56.5,85.5C 63.2105,85.713 69.8772,85.3796 76.5,84.5C 76.369,85.2389 76.5357,85.9056 77,86.5C 77.9078,83.3927 80.4078,81.7261 84.5,81.5C 84.33,82.8221 84.6634,83.9887 85.5,85C 83.6161,85.2163 81.9494,85.883 80.5,87C 81.5733,88.2504 81.5733,89.5838 80.5,91C 78.9575,92.7129 77.2908,94.2129 75.5,95.5 Z"/></g>
<g><path style="opacity:1" fill="#ab7656" d="M 101.5,93.5 C 105.107,94.8452 106.774,97.5119 106.5,101.5C 108.685,101.704 110.685,102.37 112.5,103.5C 112.167,106.833 111.833,110.167 111.5,113.5C 106.759,113.265 102.092,112.598 97.5,111.5C 97.1667,111.5 96.8333,111.5 96.5,111.5C 95.1667,111.5 93.8333,111.5 92.5,111.5C 93.6002,110.442 94.9336,109.608 96.5,109C 97.5635,106.599 97.5635,104.099 96.5,101.5C 98.1667,98.8333 99.8333,96.1667 101.5,93.5 Z"/></g>
<g><path style="opacity:0.4" fill="#ceb19a" d="M 29.5,94.5 C 34.8437,94.334 40.1771,94.5006 45.5,95C 46.056,95.3826 46.3893,95.8826 46.5,96.5C 46.5,97.1667 46.1667,97.5 45.5,97.5C 41.8287,95.1064 37.9954,95.1064 34,97.5C 33.6174,96.944 33.1174,96.6107 32.5,96.5C 32.1034,95.475 31.4368,95.3083 30.5,96C 31.2524,96.6708 31.5858,97.5041 31.5,98.5C 29.8958,97.713 29.2291,96.3797 29.5,94.5 Z"/></g>
<g><path style="opacity:0.49" fill="#a08e6a" d="M 46.5,96.5 C 46.8333,96.5 47.1667,96.5 47.5,96.5C 48.4289,101.618 49.7622,106.618 51.5,111.5C 50.8333,111.167 50.1667,110.833 49.5,110.5C 47.7679,106.303 46.4345,101.969 45.5,97.5C 46.1667,97.5 46.5,97.1667 46.5,96.5 Z"/></g>
<g><path style="opacity:0.006" fill="#d2cdc1" d="M 78.5,96.5 C 76.2866,98.3117 73.9533,98.6451 71.5,97.5C 73.8056,97.0074 76.139,96.6741 78.5,96.5 Z"/></g>
<g><path style="opacity:1" fill="#9f7f65" d="M 102.5,88.5 C 101.962,90.1172 101.629,91.7839 101.5,93.5C 99.8333,96.1667 98.1667,98.8333 96.5,101.5C 92.677,101.411 89.677,102.911 87.5,106C 84.9615,106.796 82.6282,106.629 80.5,105.5C 81.1667,105.5 81.8333,105.5 82.5,105.5C 84.1788,105.715 85.1788,105.048 85.5,103.5C 92.6443,100.107 98.311,95.1069 102.5,88.5 Z"/></g>
<g><path style="opacity:1" fill="#844d26" d="M 29.5,93.5 C 29.5,93.8333 29.5,94.1667 29.5,94.5C 29.2291,96.3797 29.8958,97.713 31.5,98.5C 33.7631,102.103 36.4297,105.436 39.5,108.5C 39.5,109.5 39.5,110.5 39.5,111.5C 43.9847,116.354 42.9847,118.02 36.5,116.5C 35.8398,112.488 33.5065,110.488 29.5,110.5C 24.6509,106.14 21.3176,100.806 19.5,94.5C 20.8121,94.1757 21.6454,93.5091 22,92.5C 23.1681,93.5089 24.3348,94.5089 25.5,95.5C 26.6223,94.3698 27.9557,93.7031 29.5,93.5 Z"/></g>
<g><path style="opacity:0.157" fill="#7c6b59" d="M 32.5,96.5 C 36.8598,103.192 42.5265,108.526 49.5,112.5C 50.5573,113.206 50.2239,113.539 48.5,113.5C 45.3661,112.099 42.3661,110.432 39.5,108.5C 36.4297,105.436 33.7631,102.103 31.5,98.5C 31.5858,97.5041 31.2524,96.6708 30.5,96C 31.4368,95.3083 32.1034,95.475 32.5,96.5 Z"/></g>
<g><path style="opacity:0.137" fill="#9a846a" d="M 58.5,100.5 C 61.2141,106.259 64.2141,111.925 67.5,117.5C 67.3605,119.337 66.6939,119.67 65.5,118.5C 62.5602,112.954 59.8935,107.287 57.5,101.5C 57.6236,100.893 57.9569,100.56 58.5,100.5 Z"/></g>
<g><path style="opacity:1" fill="#a16f4f" d="M 96.5,101.5 C 97.5635,104.099 97.5635,106.599 96.5,109C 94.9336,109.608 93.6002,110.442 92.5,111.5C 88.9052,114.129 84.9052,115.963 80.5,117C 79.8719,119.939 79.2052,122.772 78.5,125.5C 78.1796,122.102 78.513,118.768 79.5,115.5C 83.1266,114.32 86.46,112.653 89.5,110.5C 88.6519,109.009 87.3186,108.342 85.5,108.5C 81.8368,109.668 78.1702,109.668 74.5,108.5C 74.1583,107.662 73.4916,107.328 72.5,107.5C 75.003,106.629 77.6697,105.963 80.5,105.5C 82.6282,106.629 84.9615,106.796 87.5,106C 89.677,102.911 92.677,101.411 96.5,101.5 Z"/></g>
<g><path style="opacity:0.169" fill="#473e33" d="M 85.5,103.5 C 85.1788,105.048 84.1788,105.715 82.5,105.5C 83.2905,104.599 84.2905,103.932 85.5,103.5 Z"/></g>
<g><path style="opacity:1" fill="#a5856c" d="M 113.5,92.5 C 111.581,96.2464 112.415,99.2464 116,101.5C 117.85,104.537 117.85,107.537 116,110.5C 110.028,119.282 103.861,119.615 97.5,111.5C 102.092,112.598 106.759,113.265 111.5,113.5C 111.833,110.167 112.167,106.833 112.5,103.5C 112.306,100.67 111.639,98.0037 110.5,95.5C 111.163,93.9581 111.83,92.2914 112.5,90.5C 113.298,90.9569 113.631,91.6236 113.5,92.5 Z"/></g>
<g><path style="opacity:0.396" fill="#967d68" d="M 17.5,47.5 C 18.1667,47.5 18.8333,47.5 19.5,47.5C 15.9065,55.0497 14.2398,63.0497 14.5,71.5C 14.1448,79.7404 15.8114,87.4071 19.5,94.5C 21.3176,100.806 24.6509,106.14 29.5,110.5C 35.278,117.611 42.6114,122.278 51.5,124.5C 51.7822,125.778 52.4489,126.778 53.5,127.5C 33.8798,120.712 20.7131,107.379 14,87.5C 11.169,73.7384 12.3357,60.405 17.5,47.5 Z"/></g>
<g><path style="opacity:1" fill="#8f5b37" d="M 56.5,94.5 C 56.3433,95.8734 56.51,97.2068 57,98.5C 57.2321,97.2625 57.7321,96.2625 58.5,95.5C 58.5,97.1667 58.5,98.8333 58.5,100.5C 57.9569,100.56 57.6236,100.893 57.5,101.5C 59.8935,107.287 62.5602,112.954 65.5,118.5C 66.6939,119.67 67.3605,119.337 67.5,117.5C 68.1667,117.833 68.8333,118.167 69.5,118.5C 68.3398,120.203 69.0065,120.869 71.5,120.5C 71.6646,122.827 72.3313,124.993 73.5,127C 72.944,127.383 72.6107,127.883 72.5,128.5C 66.3122,128.042 60.3122,128.042 54.5,128.5C 53.8333,128.5 53.5,128.167 53.5,127.5C 52.4489,126.778 51.7822,125.778 51.5,124.5C 53.0861,123.587 54.5861,123.587 56,124.5C 57.6036,123.932 58.2703,122.932 58,121.5C 56.9505,122.517 55.7839,122.684 54.5,122C 57.1667,121.333 57.1667,120.667 54.5,120C 54.8333,119.667 55.1667,119.333 55.5,119C 53.5752,117.405 51.5752,117.238 49.5,118.5C 47.2831,114.713 43.9498,112.379 39.5,111.5C 39.5,110.5 39.5,109.5 39.5,108.5C 42.3661,110.432 45.3661,112.099 48.5,113.5C 50.0441,115.404 52.0441,116.238 54.5,116C 53.252,114.6 52.252,113.1 51.5,111.5C 49.7622,106.618 48.4289,101.618 47.5,96.5C 49.6672,101.788 52.5005,106.788 56,111.5C 56.9246,110.953 57.7579,110.287 58.5,109.5C 56.3202,107.739 54.6536,105.573 53.5,103C 55.229,101.211 55.8957,99.0444 55.5,96.5C 55.3284,95.5084 55.6618,94.8417 56.5,94.5 Z"/></g>
<g><path style="opacity:1" fill="#9b6641" d="M 74.5,108.5 C 78.1702,109.668 81.8368,109.668 85.5,108.5C 87.3186,108.342 88.6519,109.009 89.5,110.5C 86.46,112.653 83.1266,114.32 79.5,115.5C 78.513,118.768 78.1796,122.102 78.5,125.5C 78.5,126.5 78.5,127.5 78.5,128.5C 76.5,128.5 74.5,128.5 72.5,128.5C 72.6107,127.883 72.944,127.383 73.5,127C 72.3313,124.993 71.6646,122.827 71.5,120.5C 71.8693,116.232 72.8693,112.232 74.5,108.5 Z"/></g>
<g><path style="opacity:0.895" fill="#a98a6e" d="M 72.5,107.5 C 73.4916,107.328 74.1583,107.662 74.5,108.5C 72.8693,112.232 71.8693,116.232 71.5,120.5C 69.0065,120.869 68.3398,120.203 69.5,118.5C 69.3354,115.482 69.502,112.482 70,109.5C 70.4169,108.244 71.2502,107.577 72.5,107.5 Z"/></g>
<g><path style="opacity:0.655" fill="#ab9276" d="M 92.5,111.5 C 93.8333,111.5 95.1667,111.5 96.5,111.5C 92.287,114.706 87.6203,117.04 82.5,118.5C 81.7125,121.848 80.8792,125.182 80,128.5C 79.2496,129.126 78.4162,129.626 77.5,130C 69.7251,130.868 62.0585,130.368 54.5,128.5C 60.3122,128.042 66.3122,128.042 72.5,128.5C 74.5,128.5 76.5,128.5 78.5,128.5C 78.5,127.5 78.5,126.5 78.5,125.5C 79.2052,122.772 79.8719,119.939 80.5,117C 84.9052,115.963 88.9052,114.129 92.5,111.5 Z"/></g>
<g><path style="opacity:1" fill="#8a522c" d="M 29.5,110.5 C 33.5065,110.488 35.8398,112.488 36.5,116.5C 42.9847,118.02 43.9847,116.354 39.5,111.5C 43.9498,112.379 47.2831,114.713 49.5,118.5C 51.5752,117.238 53.5752,117.405 55.5,119C 55.1667,119.333 54.8333,119.667 54.5,120C 57.1667,120.667 57.1667,121.333 54.5,122C 55.7839,122.684 56.9505,122.517 58,121.5C 58.2703,122.932 57.6036,123.932 56,124.5C 54.5861,123.587 53.0861,123.587 51.5,124.5C 42.6114,122.278 35.278,117.611 29.5,110.5 Z"/></g>
<g><path style="opacity:0.012" fill="#ebd7c4" d="M 49.5,110.5 C 50.1667,110.833 50.8333,111.167 51.5,111.5C 52.252,113.1 53.252,114.6 54.5,116C 52.0441,116.238 50.0441,115.404 48.5,113.5C 50.2239,113.539 50.5573,113.206 49.5,112.5C 49.5,111.833 49.5,111.167 49.5,110.5 Z"/></g>
</svg>
