<?xml version="1.0" encoding="iso-8859-1"?>
<!-- Uploaded to: SVG Repo, www.svgrepo.com, Generator: SVG Repo Mixer Tools -->
<svg version="1.1" id="Layer_1" xmlns="http://www.w3.org/2000/svg" xmlns:xlink="http://www.w3.org/1999/xlink" 
	 viewBox="0 0 512 512" xml:space="preserve">
<rect x="114.833" y="64.243" style="fill:#808080;" width="282.334" height="377.818"/>
<polygon style="fill:#666666;" points="154.352,64.248 154.402,442.066 115.029,442.066 114.634,64.248 "/>
<g>
	<path style="fill:#70E5CF;" d="M397.167,37.553v44.185H114.833V37.553c0-15.682,12.699-28.381,28.381-28.381h225.571
		C384.467,9.172,397.167,21.884,397.167,37.553z"/>
	<path style="fill:#70E5CF;" d="M397.167,424.575v53.291c0,13.787-11.184,24.971-24.971,24.971H139.792
		c-13.787,0-24.959-11.184-24.959-24.971v-53.291H397.167z"/>
</g>
<path style="fill:#35D8B9;" d="M154.415,477.828v-53.291h-35.345V81.7h35.345V37.514c0-18.008,14.65-32.659,32.659-32.659h-43.901
	c-18.008,0-32.659,14.651-32.659,32.659v440.313c0,16.128,13.115,29.249,29.237,29.249h43.901
	C167.53,507.078,154.415,493.957,154.415,477.828z"/>
<g>
	<path style="fill:#F95428;" d="M366.131,257.747v35.947c0,6.625-5.366,12.003-11.991,12.003h-2.506
		c-6.625,0-12.003-5.378-12.003-12.003v-22.698v-14.508c0-6.625,5.378-11.991,12.003-11.991h2.506
		c6.625,0,11.991,5.366,11.991,11.991V257.747z"/>
	<path style="fill:#F95428;" d="M172.375,268.417v25.277c0,6.625-5.378,12.003-11.991,12.003h-2.518
		c-6.625,0-11.991-5.378-11.991-12.003v-35.947v-1.259c0-6.625,5.366-11.991,11.991-11.991h2.518
		c6.613,0,11.991,5.366,11.991,11.991V268.417z"/>
</g>
<path style="fill:#F2F2F2;" d="M339.632,293.694v12.003c0,26.756-17.075,50.541-42.45,59.085l-30.569,10.279
	c-6.881,2.322-14.337,2.322-21.219,0l-30.569-10.279c-25.362-8.544-42.45-32.329-42.45-59.085v-12.003v-25.277h44.906
	c35.825,0,67.971-21.989,80.951-55.381l41.399,57.96L339.632,293.694L339.632,293.694z"/>
<path style="fill:#4D4D4D;" d="M339.632,256.488v14.508l-41.399-57.96c-12.981,33.393-45.127,55.381-80.951,55.381h-44.906v-11.929
	v-26.56c0-38.6,31.29-69.89,69.89-69.89h27.477c38.6,0,69.89,31.29,69.89,69.89V256.488z"/>
<g>
	<path style="fill:#333333;" d="M274.224,126.032h-36.448c-55.73,0-101.07,45.334-101.07,101.058v66.602
		c0,11.673,9.491,21.17,21.158,21.17h2.518c1.153,0,2.275-0.117,3.377-0.296c3.356,26.998,21.852,50.047,48.141,58.903
		l30.561,10.277c4.367,1.474,8.956,2.21,13.543,2.21c4.584,0,9.168-0.736,13.528-2.207l30.573-10.281
		c26.286-8.85,44.782-31.901,48.138-58.903c1.106,0.18,2.233,0.297,3.389,0.297h2.506c11.667,0,21.158-9.497,21.158-21.17v-66.602
		C375.294,171.367,329.954,126.032,274.224,126.032z M163.205,293.691c0,1.563-1.266,2.836-2.823,2.836h-2.518
		c-1.557,0-2.823-1.272-2.823-2.836v-35.947v-1.259c0-1.557,1.266-2.823,2.823-2.823h2.518c1.557,0,2.823,1.266,2.823,2.823V293.691
		z M330.461,293.691v6.122l-52.713,24.182c-4.602,2.111-6.621,7.552-4.509,12.154c1.542,3.364,4.865,5.347,8.338,5.347
		c1.279,0,2.578-0.269,3.817-0.837l42.81-19.638c-4.872,16.207-17.307,29.467-33.946,35.068l-30.579,10.283
		c-4.953,1.671-10.406,1.671-15.365-0.002l-30.566-10.278c-21.658-7.296-36.209-27.549-36.209-50.397v-12.003v-16.11h35.739
		c19.433,0,38.182-5.798,54.218-16.77c11.558-7.906,21.121-18.099,28.198-29.956l30.766,43.074V293.691z M330.461,242.387
		l-24.772-34.682c-1.957-2.739-5.259-4.185-8.6-3.768c-3.341,0.419-6.184,2.636-7.403,5.775
		c-11.698,30.091-40.12,49.535-72.408,49.535h-35.739v-29.322c0-33.483,27.241-60.723,60.723-60.723h27.477
		c33.483,0,60.723,27.24,60.723,60.723V242.387z M356.96,257.745v35.947c0,1.563-1.266,2.836-2.823,2.836h-2.506
		c-1.563,0-2.836-1.272-2.836-2.836v-37.206c0-1.557,1.272-2.823,2.836-2.823h2.506c1.557,0,2.823,1.266,2.823,2.823V257.745z
		 M356.96,235.539c-0.926-0.125-1.864-0.211-2.823-0.211h-2.506c-0.964,0-1.906,0.087-2.836,0.213v-5.615
		c0-43.593-35.466-79.057-79.057-79.057h-27.477c-43.593,0-79.057,35.464-79.057,79.057v5.614c-0.926-0.125-1.864-0.211-2.823-0.211
		h-2.518c-0.959,0-1.897,0.087-2.823,0.211v-8.448c0-45.614,37.116-82.724,82.736-82.724h36.448c45.62,0,82.736,37.11,82.736,82.724
		L356.96,235.539L356.96,235.539z"/>
	<path style="fill:#333333;" d="M372.204,512c18.819,0,34.13-15.31,34.13-34.131V37.548C406.334,16.844,389.49,0,368.786,0H143.214
		c-20.704,0-37.548,16.844-37.548,37.548v440.321c0,18.819,15.31,34.131,34.13,34.131H372.204z M124,37.548
		c0-10.595,8.619-19.214,19.214-19.214h225.571c10.595,0,19.214,8.62,19.214,19.214v35.018H124V37.548z M124,90.901h264v324.503H124
		V90.901z M124,477.869v-44.132h264v44.132c0,8.71-7.086,15.797-15.796,15.797H139.797C131.087,493.666,124,486.579,124,477.869z"/>
	<path style="fill:#333333;" d="M296.335,38.347h-80.667c-5.063,0-9.167,4.104-9.167,9.167s4.104,9.167,9.167,9.167h80.667
		c5.063,0,9.167-4.104,9.167-9.167S301.398,38.347,296.335,38.347z"/>
	<path style="fill:#333333;" d="M240.876,480.678c1.789,1.789,4.136,2.685,6.482,2.685c2.346,0,4.692-0.895,6.482-2.685l2.161-2.161
		l2.161,2.161c1.789,1.789,4.136,2.685,6.482,2.685c2.346,0,4.692-0.895,6.482-2.685c3.58-3.58,3.58-9.385,0-12.963l-2.161-2.161
		l2.161-2.161c3.58-3.58,3.58-9.385,0-12.963c-3.58-3.58-9.385-3.58-12.963,0L256,452.59l-2.161-2.161
		c-3.58-3.58-9.385-3.58-12.963,0c-3.58,3.58-3.58,9.385,0,12.963l2.161,2.161l-2.161,2.161
		C237.295,471.293,237.295,477.098,240.876,480.678z"/>
</g>
</svg>