<?xml version="1.0" encoding="iso-8859-1"?>
<!-- Uploaded to: SVG Repo, www.svgrepo.com, Generator: SVG Repo Mixer Tools -->
<svg height="800px" width="800px" version="1.1" id="Layer_1" xmlns="http://www.w3.org/2000/svg" xmlns:xlink="http://www.w3.org/1999/xlink" 
	 viewBox="0 0 512 512" xml:space="preserve">
<circle style="fill:#FEE187;" cx="256" cy="256" r="256"/>
<path style="fill:#FFC61B;" d="M504.775,195.439l-95.479-79.07L102.445,395.388l128.8,115.415C239.392,511.586,247.648,512,256,512
	c141.384,0,256-114.616,256-256C512,235.134,509.485,214.857,504.775,195.439z"/>
<path style="fill:#E03A00;" d="M175.12,398.222h-65.795c-5.396,0-9.769-4.374-9.769-9.769V123.547c0-5.396,4.374-9.769,9.769-9.769
	h65.795c5.396,0,9.769,4.374,9.769,9.769v264.906C184.889,393.849,180.515,398.222,175.12,398.222z"/>
<circle style="fill:#FFC61B;" cx="142.222" cy="343.919" r="19.825"/>
<path style="fill:#386895;" d="M288.897,398.222h-65.795c-5.396,0-9.769-4.374-9.769-9.769V123.547c0-5.396,4.374-9.769,9.769-9.769
	h65.795c5.396,0,9.769,4.374,9.769,9.769v264.906C298.667,393.849,294.293,398.222,288.897,398.222z"/>
<path style="fill:#273B7A;" d="M288.897,113.778h-32.178v284.444h32.178c5.396,0,9.769-4.374,9.769-9.769V123.547
	C298.667,118.151,294.293,113.778,288.897,113.778z"/>
<circle style="fill:#FFC61B;" cx="256" cy="343.919" r="19.825"/>
<path style="fill:#FF5419;" d="M402.675,398.222H336.88c-5.396,0-9.769-4.374-9.769-9.769V123.547c0-5.396,4.374-9.769,9.769-9.769
	h65.795c5.396,0,9.769,4.374,9.769,9.769v264.906C412.444,393.849,408.071,398.222,402.675,398.222z"/>
<circle style="fill:#FFC61B;" cx="369.778" cy="343.919" r="19.825"/>
</svg>